HIERARCHY
ROOT Hips
{
	OFFSET 13.639419 -0.077229 3.268148
	CHANNELS 6 Xposition Yposition Zposition Zrotation Yrotation Xrotation 
	JOINT Spine
	{
		OFFSET 0.000018 8.340398 -2.713950
		CHANNELS 3 Zrotation Yrotation Xrotation
		JOINT Spine1
		{
			OFFSET -0.000036 11.909915 -2.100023
			CHANNELS 3 Zrotation Yrotation Xrotation
			JOINT Spine2
			{
				OFFSET -0.000035 12.047725 -1.053960
				CHANNELS 3 Zrotation Yrotation Xrotation
				JOINT Spine3
				{
					OFFSET 0.000009 12.093726 0.000010
					CHANNELS 3 Zrotation Yrotation Xrotation
					JOINT Neck
					{
						OFFSET -0.000055 15.549055 1.554907
						CHANNELS 3 Zrotation Yrotation Xrotation
						JOINT Neck1
						{
							OFFSET 0.000007 4.687375 0.410093
							CHANNELS 3 Zrotation Yrotation Xrotation
							JOINT Head
							{
								OFFSET 0.000008 4.633826 0.817103
								CHANNELS 3 Zrotation Yrotation Xrotation
								JOINT HeadEnd
								{
									OFFSET -0.000010 9.727736 0.000025
									CHANNELS 3 Zrotation Yrotation Xrotation
									End Site
									{
										OFFSET 0.000000 0.000000 0.000000
									}
								}
							}
						}
					}
					JOINT RightShoulder
					{
						OFFSET 0.000001 11.106527 6.072583
						CHANNELS 3 Zrotation Yrotation Xrotation
						JOINT RightArm
						{
							OFFSET -19.427911 0.000019 -0.000016
							CHANNELS 3 Zrotation Yrotation Xrotation
							JOINT RightForeArm
							{
								OFFSET -29.350702 0.000007 -0.000043
								CHANNELS 3 Zrotation Yrotation Xrotation
								JOINT RightHand
								{
									OFFSET -27.018058 -0.000011 -0.000007
									CHANNELS 3 Zrotation Yrotation Xrotation
									JOINT RightHandMiddle1
									{
										OFFSET -9.244013 0.000027 -0.000043
										CHANNELS 3 Zrotation Yrotation Xrotation
										JOINT RightHandMiddle2
										{
											OFFSET -4.869982 0.000003 0.000042
											CHANNELS 3 Zrotation Yrotation Xrotation
											JOINT RightHandMiddle3
											{
												OFFSET -3.169095 -0.000022 0.000026
												CHANNELS 3 Zrotation Yrotation Xrotation
												JOINT RightHandMiddle4
												{
													OFFSET -1.888419 -0.000041 -0.000000
													CHANNELS 3 Zrotation Yrotation Xrotation
													End Site
													{
														OFFSET 0.000000 0.000000 0.000000
													}
												}
											}
										}
									}
									JOINT RightHandRing
									{
										OFFSET -0.249991 -0.250044 -0.956478
										CHANNELS 3 Zrotation Yrotation Xrotation
										JOINT RightHandRing1
										{
											OFFSET -8.140215 0.000044 -0.734573
											CHANNELS 3 Zrotation Yrotation Xrotation
											JOINT RightHandRing2
											{
												OFFSET -4.501569 0.000016 -0.406282
												CHANNELS 3 Zrotation Yrotation Xrotation
												JOINT RightHandRing3
												{
													OFFSET -3.068876 -0.000040 -0.276969
													CHANNELS 3 Zrotation Yrotation Xrotation
													JOINT RightHandRing4
													{
														OFFSET -1.869926 0.000024 -0.168733
														CHANNELS 3 Zrotation Yrotation Xrotation
														End Site
														{
															OFFSET 0.000000 0.000000 0.000000
														}
													}
												}
											}
										}
										JOINT RightHandPinky
										{
											OFFSET -0.163008 -0.249979 -0.975115
											CHANNELS 3 Zrotation Yrotation Xrotation
											JOINT RightHandPinky1
											{
												OFFSET -6.681498 -0.000004 -1.494112
												CHANNELS 3 Zrotation Yrotation Xrotation
												JOINT RightHandPinky2
												{
													OFFSET -3.580941 -0.000026 -0.800764
													CHANNELS 3 Zrotation Yrotation Xrotation
													JOINT RightHandPinky3
													{
														OFFSET -2.276552 0.000006 -0.509108
														CHANNELS 3 Zrotation Yrotation Xrotation
														JOINT RightHandPinky4
														{
															OFFSET -1.690364 -0.000020 -0.378014
															CHANNELS 3 Zrotation Yrotation Xrotation
															End Site
															{
																OFFSET 0.000000 0.000000 0.000000
															}
														}
													}
												}
											}
										}
									}
									JOINT RightHandIndex
									{
										OFFSET -0.250008 -0.250023 0.956504
										CHANNELS 3 Zrotation Yrotation Xrotation
										JOINT RightHandIndex1
										{
											OFFSET -8.934100 0.000002 0.806251
											CHANNELS 3 Zrotation Yrotation Xrotation
											JOINT RightHandIndex2
											{
												OFFSET -4.694697 -0.000007 0.423689
												CHANNELS 3 Zrotation Yrotation Xrotation
												JOINT RightHandIndex3
												{
													OFFSET -2.811754 -0.000019 0.253758
													CHANNELS 3 Zrotation Yrotation Xrotation
													JOINT RightHandIndex4
													{
														OFFSET -1.709952 -0.000026 0.154300
														CHANNELS 3 Zrotation Yrotation Xrotation
														End Site
														{
															OFFSET 0.000000 0.000000 0.000000
														}
													}
												}
											}
										}
										JOINT RightHandThumb1
										{
											OFFSET -0.163007 -0.749968 0.975109
											CHANNELS 3 Zrotation Yrotation Xrotation
											JOINT RightHandThumb2
											{
												OFFSET -5.411674 0.835537 2.244686
												CHANNELS 3 Zrotation Yrotation Xrotation
												JOINT RightHandThumb3
												{
													OFFSET -3.567210 0.550756 1.479596
													CHANNELS 3 Zrotation Yrotation Xrotation
													JOINT RightHandThumb4
													{
														OFFSET -2.150557 0.332028 0.892020
														CHANNELS 3 Zrotation Yrotation Xrotation
														End Site
														{
															OFFSET 0.000000 0.000000 0.000000
														}
													}
												}
											}
										}
									}
								}
							}
						}
					}
					JOINT LeftShoulder
					{
						OFFSET 0.000004 11.106495 6.072660
						CHANNELS 3 Zrotation Yrotation Xrotation
						JOINT LeftArm
						{
							OFFSET 19.427929 0.000015 0.000008
							CHANNELS 3 Zrotation Yrotation Xrotation
							JOINT LeftForeArm
							{
								OFFSET 29.350784 -0.000018 -0.000001
								CHANNELS 3 Zrotation Yrotation Xrotation
								JOINT LeftHand
								{
									OFFSET 27.018107 0.000050 -0.000026
									CHANNELS 3 Zrotation Yrotation Xrotation
									JOINT LeftHandMiddle1
									{
										OFFSET 9.402670 0.000032 0.000011
										CHANNELS 3 Zrotation Yrotation Xrotation
										JOINT LeftHandMiddle2
										{
											OFFSET 4.950119 0.000038 -0.000002
											CHANNELS 3 Zrotation Yrotation Xrotation
											JOINT LeftHandMiddle3
											{
												OFFSET 3.211905 0.000021 0.000016
												CHANNELS 3 Zrotation Yrotation Xrotation
												JOINT LeftHandMiddle4
												{
													OFFSET 1.927627 -0.000011 -0.000005
													CHANNELS 3 Zrotation Yrotation Xrotation
													End Site
													{
														OFFSET 0.000000 0.000000 0.000000
													}
												}
											}
										}
									}
									JOINT LeftHandRing
									{
										OFFSET 0.250039 -0.250023 -0.906139
										CHANNELS 3 Zrotation Yrotation Xrotation
										JOINT LeftHandRing1
										{
											OFFSET 8.286060 -0.000003 -0.747770
											CHANNELS 3 Zrotation Yrotation Xrotation
											JOINT LeftHandRing2
											{
												OFFSET 4.585473 0.000020 -0.413806
												CHANNELS 3 Zrotation Yrotation Xrotation
												JOINT LeftHandRing3
												{
													OFFSET 3.124434 0.000003 -0.281943
													CHANNELS 3 Zrotation Yrotation Xrotation
													JOINT LeftHandRing4
													{
														OFFSET 1.908765 -0.000022 -0.172253
														CHANNELS 3 Zrotation Yrotation Xrotation
														End Site
														{
															OFFSET 0.000000 0.000000 0.000000
														}
													}
												}
											}
										}
										JOINT LeftHandPinky
										{
											OFFSET 0.167554 -0.249985 -0.924929
											CHANNELS 3 Zrotation Yrotation Xrotation
											JOINT LeftHandPinky1
											{
												OFFSET 6.823479 0.000027 -1.525852
												CHANNELS 3 Zrotation Yrotation Xrotation
												JOINT LeftHandPinky2
												{
													OFFSET 3.642816 -0.000010 -0.814618
													CHANNELS 3 Zrotation Yrotation Xrotation
													JOINT LeftHandPinky3
													{
														OFFSET 2.333093 0.000025 -0.521736
														CHANNELS 3 Zrotation Yrotation Xrotation
														JOINT LeftHandPinky4
														{
															OFFSET 1.725447 0.000013 -0.385887
															CHANNELS 3 Zrotation Yrotation Xrotation
															End Site
															{
																OFFSET 0.000000 0.000000 0.000000
															}
														}
													}
												}
											}
										}
									}
									JOINT LeftHandIndex
									{
										OFFSET 0.250019 -0.250019 0.906188
										CHANNELS 3 Zrotation Yrotation Xrotation
										JOINT LeftHandIndex1
										{
											OFFSET 9.087968 0.000015 0.820121
											CHANNELS 3 Zrotation Yrotation Xrotation
											JOINT LeftHandIndex2
											{
												OFFSET 4.776591 -0.000017 0.431060
												CHANNELS 3 Zrotation Yrotation Xrotation
												JOINT LeftHandIndex3
												{
													OFFSET 2.865118 -0.000025 0.258591
													CHANNELS 3 Zrotation Yrotation Xrotation
													JOINT LeftHandIndex4
													{
														OFFSET 1.745470 -0.000021 0.157496
														CHANNELS 3 Zrotation Yrotation Xrotation
														End Site
														{
															OFFSET 0.000000 0.000000 0.000000
														}
													}
												}
											}
										}
										JOINT LeftHandThumb1
										{
											OFFSET 0.167565 -0.750025 0.924931
											CHANNELS 3 Zrotation Yrotation Xrotation
											JOINT LeftHandThumb2
											{
												OFFSET 5.551458 0.857100 2.302677
												CHANNELS 3 Zrotation Yrotation Xrotation
												JOINT LeftHandThumb3
												{
													OFFSET 3.625659 0.559807 1.503877
													CHANNELS 3 Zrotation Yrotation Xrotation
													JOINT LeftHandThumb4
													{
														OFFSET 2.195243 0.338942 0.910580
														CHANNELS 3 Zrotation Yrotation Xrotation
														End Site
														{
															OFFSET 0.000000 0.000000 0.000000
														}
													}
												}
											}
										}
									}
								}
							}
						}
					}
				}
			}
		}
	}
	JOINT RightUpLeg
	{
		OFFSET -8.786515 -0.000010 0.000015
		CHANNELS 3 Zrotation Yrotation Xrotation
		JOINT RightLeg
		{
			OFFSET 0.000032 -42.170438 -0.000001
			CHANNELS 3 Zrotation Yrotation Xrotation
			JOINT RightFoot
			{
				OFFSET -0.000019 -45.949167 -0.000050
				CHANNELS 3 Zrotation Yrotation Xrotation
				JOINT RightForeFoot
				{
					OFFSET -0.000021 -4.685743 0.000040
					CHANNELS 3 Zrotation Yrotation Xrotation
					JOINT RightToeBase
					{
						OFFSET 0.000004 -0.000010 18.351036
						CHANNELS 3 Zrotation Yrotation Xrotation
						JOINT RightToeBaseEnd
						{
							OFFSET -0.000033 0.000033 6.416950
							CHANNELS 3 Zrotation Yrotation Xrotation
							End Site
							{
								OFFSET 0.000000 0.000000 0.000000
							}
						}
					}
				}
			}
		}
	}
	JOINT LeftUpLeg
	{
		OFFSET 8.786527 0.000027 -0.000004
		CHANNELS 3 Zrotation Yrotation Xrotation
		JOINT LeftLeg
		{
			OFFSET -0.000056 -42.170397 0.000011
			CHANNELS 3 Zrotation Yrotation Xrotation
			JOINT LeftFoot
			{
				OFFSET 0.000035 -45.949115 -0.000011
				CHANNELS 3 Zrotation Yrotation Xrotation
				JOINT LeftForeFoot
				{
					OFFSET 0.000010 -4.685774 0.000019
					CHANNELS 3 Zrotation Yrotation Xrotation
					JOINT LeftToeBase
					{
						OFFSET -0.000085 0.000010 18.351119
						CHANNELS 3 Zrotation Yrotation Xrotation
						JOINT LeftToeBaseEnd
						{
							OFFSET -0.000006 0.000000 7.522011
							CHANNELS 3 Zrotation Yrotation Xrotation
							End Site
							{
								OFFSET 0.000000 0.000000 0.000000
							}
						}
					}
				}
			}
		}
	}
}
MOTION
Frames: 5
Frame Time: 0.066667
13.639419 -0.077229 3.268148 9.649598 14.268909 -11.191974 -7.682717 2.629237 13.133427 0.262809 0.021219 -0.691822 -0.043466 -0.157519 0.587200 2.240313 0.484902 7.376685 8.109861 -0.156206 3.435943 -15.565909 6.626659 9.062067 -5.320729 1.224267 3.507069 -0.000174 0.003085 -0.001858 8.625527 -9.461912 -1.399493 69.808678 -1.076441 18.431442 0.003526 86.904839 -23.124918 -11.149753 -10.150472 -0.021371 36.079239 -10.053735 0.004702 49.164547 0.002168 -0.000961 21.457428 0.000157 -0.001291 -0.000188 -0.000113 0.001257 -2.215052 -1.965680 -2.606544 48.528957 -3.556765 -3.861284 54.117596 2.132667 -4.189971 21.821320 0.366946 -1.920933 -0.003409 0.001205 -0.001564 -2.405118 -4.959691 -4.492104 35.596809 6.582014 -7.603261 52.491615 5.018703 -10.206384 39.215145 2.863646 -8.121568 0.000514 0.000340 -0.000272 0.327547 7.433786 -0.091946 22.215847 -15.999481 2.095287 36.884720 -1.033594 3.104544 24.973183 -0.483450 2.185187 0.001613 0.000632 -0.000197 6.402825 5.580956 48.490730 0.885406 -3.687312 -0.170098 13.421482 -9.070583 3.298549 -0.000829 0.000254 0.000871 -10.125217 6.782335 -1.188539 -62.149315 0.008210 12.931382 179.999191 -82.357811 -177.873245 -1.143350 18.834501 0.016162 -21.046925 3.252704 0.002182 -3.664098 -0.000667 0.000001 -3.140571 0.000604 -0.001106 0.001660 -0.000580 -0.001626 -0.813792 1.219778 -10.248358 -14.739037 0.040974 -1.315961 -16.978552 -0.217757 -1.511661 2.159901 -0.002391 0.197605 0.000217 -0.002122 -0.002486 -0.328708 -0.233452 -9.962404 3.355469 14.740917 0.727136 -11.962864 -0.297370 -2.664917 -8.677655 -0.132708 -1.940321 0.000276 -0.000364 0.000390 1.901496 -6.787594 -5.477749 -15.288920 6.815360 1.407298 6.653220 0.021575 -0.601186 5.516638 0.027664 -0.496818 0.001156 0.000087 0.000912 -9.433291 0.510862 45.375118 6.892411 -5.574060 -2.165747 0.000000 0.000000 0.000000 0.000162 -0.002963 0.001731 -24.630081 -4.643711 9.847955 0.001465 -0.003348 10.930467 -0.000000 -0.000000 -0.000000 -0.000000 -0.000000 0.000000 0.000000 0.000000 -0.000000 0.000000 0.000000 0.000000 -18.133753 1.394608 21.736448 -0.000592 -0.000567 -0.991472 0.000000 0.000000 -0.000000 0.000000 -0.000000 -0.000000 0.000000 -0.000000 -0.000000 -0.000000 -0.000000 0.000000 
13.669548 -0.076945 3.404386 9.629610 13.866568 -11.312005 -7.696614 2.636816 13.077055 0.257162 0.025524 -0.696268 -0.097800 -0.143350 0.558670 2.148468 0.490234 7.347446 8.475570 -0.152166 3.646954 -15.955261 6.923389 8.902396 -5.321212 1.238636 3.387191 -0.000353 0.003545 -0.001734 8.337428 -9.469877 -1.350504 70.049698 -1.273787 19.175240 0.004262 87.175400 -23.380842 -10.714662 -10.214503 -0.019006 36.031307 -10.104299 0.003567 49.018898 0.001938 -0.000833 21.445221 0.000036 -0.001052 -0.000562 -0.000194 0.001289 -2.229811 -1.965917 -2.550502 48.570034 -3.518120 -3.863904 54.326752 2.145130 -4.201565 21.853111 0.368101 -1.923486 -0.003223 0.001304 -0.001255 -2.429109 -4.988795 -4.494252 35.566925 6.709383 -7.603656 52.919598 5.098063 -10.265729 39.383106 2.886546 -8.150814 0.001050 0.000190 -0.000119 0.325189 7.418448 -0.086451 22.181822 -16.029968 2.093563 36.645332 -1.021788 3.086540 25.029718 -0.484551 2.189238 0.001643 0.001124 -0.000042 6.382539 5.718373 48.338314 0.690370 -3.661790 -0.247438 13.332030 -9.004446 3.282882 -0.001046 -0.000125 0.000807 -10.403275 6.530397 -1.176880 -63.001110 1.305642 14.861594 -179.999161 -82.384460 -177.845322 -2.038014 18.971775 0.025349 -20.527412 3.318384 0.001862 -2.826043 -0.000691 0.000271 -2.906921 0.000671 -0.000970 0.001469 -0.000446 -0.001305 -0.843913 1.247903 -10.515608 -14.677031 0.311594 -1.309948 -17.376831 -0.229257 -1.545900 2.069585 -0.002314 0.188749 0.000198 -0.001899 -0.001993 -0.301704 -0.175350 -9.739598 3.674206 14.723030 0.796866 -11.905893 -0.295945 -2.651344 -8.471528 -0.124650 -1.894998 0.000209 -0.000323 0.000404 1.891282 -6.775796 -5.440367 -14.757849 6.636545 1.359954 7.474201 0.030803 -0.674860 5.870517 0.031497 -0.528746 0.001098 0.000475 0.000706 -9.486465 0.427861 45.149254 7.024833 -5.532687 -2.239305 0.000000 0.000000 0.000000 -0.000094 -0.002789 0.001306 -24.646187 -4.471253 9.779723 0.001313 -0.003309 10.842072 -0.000000 -0.000000 -0.000000 -0.000000 -0.000000 0.000000 0.000000 0.000000 -0.000000 0.000000 0.000000 0.000000 -18.100510 1.551414 21.804478 -0.000795 -0.000088 -0.917099 0.000000 0.000000 -0.000000 0.000000 -0.000000 -0.000000 0.000000 -0.000000 -0.000000 -0.000000 0.000000 0.000000 
13.666590 -0.071396 3.495449 9.613636 13.514947 -11.401403 -7.716818 2.641309 13.014338 0.251262 0.027639 -0.701403 -0.141065 -0.155301 0.523755 2.075982 0.488597 7.305233 8.749337 -0.131120 3.901589 -16.297230 7.184902 8.777456 -5.319979 1.251215 3.277975 -0.000483 0.003958 -0.001658 8.078113 -9.470867 -1.306004 70.248650 -1.454975 19.796686 0.004426 87.269196 -23.566372 -10.271852 -10.258089 -0.016726 35.983379 -10.151170 0.002560 48.927822 0.001730 -0.000725 21.458479 -0.000070 -0.000821 -0.000891 -0.000245 0.001320 -2.244316 -1.966557 -2.503405 48.608829 -3.486303 -3.866363 54.567642 2.160859 -4.214760 21.905436 0.369993 -1.927782 -0.003084 0.001396 -0.000997 -2.453485 -5.017695 -4.492430 35.555210 6.830346 -7.607045 53.362614 5.180654 -10.326534 39.558895 2.910864 -8.181364 0.001510 0.000064 0.000016 0.322920 7.405303 -0.079623 22.151316 -16.055262 2.092092 36.460369 -1.012981 3.072515 25.099972 -0.486314 2.194479 0.001674 0.001546 0.000086 6.368712 5.853660 48.194008 0.510334 -3.632162 -0.317790 13.251588 -8.944938 3.268756 -0.001232 -0.000461 0.000756 -10.554736 6.304523 -1.155261 -63.476543 1.930952 16.055887 -179.997665 -82.875740 -178.031662 -2.945482 19.031366 0.032260 -20.100241 3.382077 0.001575 -2.010748 -0.000700 0.000521 -2.667667 0.000743 -0.000853 0.001344 -0.000339 -0.001019 -0.867613 1.273964 -10.756642 -14.668160 0.573991 -1.308640 -17.667627 -0.237985 -1.570835 2.019116 -0.002424 0.183590 0.000175 -0.001713 -0.001556 -0.272665 -0.118176 -9.529830 3.898320 14.700746 0.845959 -11.822723 -0.293247 -2.632175 -8.267379 -0.117042 -1.850034 0.000127 -0.000288 0.000423 1.883351 -6.764789 -5.399094 -14.295230 6.468452 1.318669 8.278708 0.040711 -0.746928 6.211099 0.035230 -0.559429 0.001046 0.000817 0.000515 -9.526372 0.345782 44.953064 7.140733 -5.499482 -2.302925 0.000000 0.000000 0.000000 -0.000304 -0.002629 0.000934 -24.642122 -4.321539 9.732651 0.001139 -0.003270 10.754519 -0.000000 -0.000000 -0.000000 -0.000000 -0.000000 -0.000000 0.000000 0.000000 -0.000000 0.000000 0.000000 0.000000 -18.047960 1.676684 21.869101 -0.000913 0.000385 -0.893123 0.000000 0.000000 -0.000000 0.000000 -0.000000 -0.000000 0.000000 -0.000000 -0.000000 -0.000000 0.000000 0.000000 
13.630880 -0.060581 3.541362 9.601401 13.213867 -11.460190 -7.743327 2.642713 12.945282 0.245109 0.027563 -0.707226 -0.173262 -0.193372 0.482458 2.022856 0.479991 7.250056 8.931180 -0.093072 4.199991 -16.591600 7.411231 8.687508 -5.317030 1.262002 3.179426 -0.000565 0.004322 -0.001630 7.847604 -9.464936 -1.266008 70.405632 -1.620066 20.296309 0.004089 87.187279 -23.682238 -9.821325 -10.281193 -0.014546 35.935452 -10.194357 0.001685 48.891289 0.001542 -0.000637 21.497210 -0.000163 -0.000598 -0.001174 -0.000264 0.001350 -2.258567 -1.967598 -2.465251 48.645329 -3.461323 -3.868659 54.840382 2.179844 -4.229529 21.978285 0.372622 -1.933818 -0.002992 0.001483 -0.000789 -2.478244 -5.046391 -4.486638 35.561680 6.944890 -7.613420 53.820679 5.266446 -10.388733 39.742542 2.936598 -8.213210 0.001894 -0.000037 0.000132 0.320737 7.394345 -0.071461 22.124327 -16.075365 2.090878 36.329865 -1.007184 3.062501 25.183949 -0.488737 2.200909 0.001705 0.001897 0.000185 6.361350 5.986822 48.057812 0.345307 -3.598436 -0.381149 13.180151 -8.892059 3.256171 -0.001389 -0.000752 0.000719 -10.580080 6.104671 -1.123729 -63.607006 1.936049 16.587360 -179.995941 -83.827103 -178.441544 -3.864763 19.013073 0.037081 -19.765377 3.443897 0.001318 -1.217948 -0.000693 0.000751 -2.422783 0.000821 -0.000755 0.001282 -0.000261 -0.000767 -0.884891 1.297961 -10.971456 -14.712406 0.828198 -1.312027 -17.850945 -0.243947 -1.586511 2.008500 -0.002719 0.182131 0.000149 -0.001563 -0.001174 -0.241593 -0.061929 -9.333108 4.027843 14.674335 0.874434 -11.713354 -0.289276 -2.607405 -8.065187 -0.109884 -1.805427 0.000032 -0.000258 0.000448 1.877704 -6.754573 -5.353930 -13.901056 6.311311 1.283502 9.066857 0.051297 -0.817394 6.538362 0.038861 -0.588865 0.000999 0.001113 0.000340 -9.553016 0.264622 44.786537 7.240119 -5.474453 -2.356606 0.000000 0.000000 0.000000 -0.000467 -0.002481 0.000616 -24.617876 -4.194634 9.706699 0.000944 -0.003233 10.667796 -0.000000 -0.000000 -0.000000 -0.000000 -0.000000 -0.000000 0.000000 0.000000 -0.000000 0.000000 0.000000 0.000000 -17.976120 1.770437 21.930279 -0.000945 0.000853 -0.919557 0.000000 0.000000 -0.000000 0.000000 -0.000000 -0.000000 0.000000 -0.000000 -0.000000 -0.000000 0.000000 0.000000 
13.562697 -0.044500 3.542164 9.592687 12.963192 -11.488370 -7.776139 2.641028 12.869879 0.238704 0.025296 -0.713737 -0.194395 -0.257561 0.434782 1.989093 0.464416 7.181925 9.021124 -0.038020 4.542324 -16.838198 7.602430 8.632758 -5.312363 1.270996 3.091547 -0.000597 0.004639 -0.001649 7.645923 -9.452148 -1.230526 70.520744 -1.769110 20.674725 0.003331 86.929413 -23.729311 -9.363098 -10.283766 -0.012479 35.887505 -10.233866 0.000941 48.909302 0.001376 -0.000569 21.561407 -0.000241 -0.000383 -0.001411 -0.000253 0.001379 -2.272566 -1.969042 -2.436042 48.679531 -3.443187 -3.870795 55.145058 2.202071 -4.245844 22.071663 0.375986 -1.941592 -0.002947 0.001563 -0.000633 -2.503389 -5.074884 -4.476876 35.586338 7.053000 -7.622776 54.293854 5.355407 -10.452261 39.934044 2.963742 -8.246343 0.002204 -0.000114 0.000229 0.318643 7.385582 -0.061965 22.100855 -16.090288 2.089918 36.253849 -1.004407 3.056523 25.281647 -0.491820 2.208526 0.001737 0.002179 0.000256 6.360455 6.117858 47.929779 0.195298 -3.560623 -0.437511 13.117712 -8.845818 3.245127 -0.001517 -0.001001 0.000696 -10.479613 5.930724 -1.082296 -63.406452 1.340917 16.489779 -179.993332 -85.246170 -179.096039 -4.794813 18.916702 0.040063 -19.522724 3.503943 0.001090 -0.447359 -0.000670 0.000961 -2.172240 0.000905 -0.000676 0.001285 -0.000210 -0.000550 -0.895748 1.319893 -11.160037 -14.809767 1.074244 -1.320095 -17.926769 -0.247148 -1.592954 2.037741 -0.003202 0.184370 0.000120 -0.001449 -0.000848 -0.208487 -0.006611 -9.149446 4.062809 14.643952 0.882308 -11.577779 -0.284032 -2.577026 -7.864942 -0.103176 -1.761175 -0.000076 -0.000234 0.000478 1.874340 -6.745152 -5.304877 -13.575278 6.165302 1.254502 9.838783 0.062562 -0.886263 6.852293 0.042392 -0.617054 0.000957 0.001363 0.000179 -9.566396 0.184378 44.649673 7.322999 -5.457612 -2.400347 0.000000 0.000000 0.000000 -0.000583 -0.002347 0.000350 -24.573442 -4.090593 9.701814 0.000728 -0.003197 10.581898 -0.000000 -0.000000 -0.000000 0.000000 -0.000000 -0.000000 0.000000 0.000000 -0.000000 0.000000 0.000000 0.000000 -17.884991 1.832693 21.987972 -0.000892 0.001315 -0.996423 0.000000 0.000000 -0.000000 0.000000 -0.000000 -0.000000 0.000000 0.000000 -0.000000 -0.000000 0.000000 0.000000 
